<svg width="335" height="117" viewBox="0 0 335 117" fill="none" xmlns="http://www.w3.org/2000/svg">
<path fill-rule="evenodd" clip-rule="evenodd" d="M58.1197 17.8008L59.7253 6.37604L71.1501 7.98169L69.5444 19.4065L80.9692 21.0121L77.7812 43.6961L100.3 46.8608L98.7172 58.12L109.976 59.7024L108.371 71.1271L97.1115 69.5448L95.5292 80.8039L73.0108 77.6392L69.8228 100.323L58.398 98.7175L56.7924 110.142L45.3676 108.537L46.9732 97.1119L35.7141 95.5295L38.9021 72.8455L16.2181 69.6575L17.8005 58.3983L6.37573 56.7927L7.98138 45.3679L19.4061 46.9736L20.9885 35.7144L43.6725 38.9024L46.8605 16.2184L58.1197 17.8008ZM54.932 40.4849L56.5376 29.0601L67.9624 30.6658L66.3568 42.0905L54.932 40.4849ZM50.138 74.5935L48.5324 86.0182L59.9571 87.6239L61.5628 76.1991L50.138 74.5935ZM29.2252 60.0039L30.8309 48.5791L42.2556 50.1848L40.65 61.6095L29.2252 60.0039ZM76.1988 54.9553L74.5931 66.38L86.0179 67.9857L87.6236 56.5609L76.1988 54.9553Z" fill="url(#paint0_linear_828_25)"/>
<path d="M135.142 45.665V21.825H145.19C146.683 21.825 147.974 22.0917 149.062 22.625C150.15 23.137 150.982 23.8837 151.558 24.865C152.134 25.825 152.422 26.9664 152.422 28.289C152.422 29.441 152.123 30.497 151.526 31.457C150.95 32.3957 150.043 33.1424 148.806 33.697V32.097C149.894 32.5237 150.779 33.0677 151.462 33.729C152.144 34.369 152.635 35.0944 152.934 35.905C153.254 36.7157 153.414 37.569 153.414 38.465C153.414 40.705 152.678 42.465 151.206 43.745C149.755 45.025 147.76 45.665 145.222 45.665H135.142ZM138.918 42.305H145.51C146.768 42.305 147.771 41.9637 148.518 41.281C149.264 40.577 149.638 39.649 149.638 38.497C149.638 37.3237 149.264 36.3957 148.518 35.713C147.771 35.009 146.768 34.657 145.51 34.657H138.918V42.305ZM138.918 31.329H145.286C146.31 31.329 147.131 31.041 147.75 30.465C148.368 29.8677 148.678 29.089 148.678 28.129C148.678 27.169 148.368 26.4224 147.75 25.889C147.131 25.3557 146.31 25.089 145.286 25.089H138.918V31.329ZM161.81 46.049C160.637 46.049 159.602 45.8464 158.706 45.441C157.831 45.0144 157.149 44.4384 156.658 43.713C156.167 42.9664 155.922 42.0917 155.922 41.089C155.922 40.1504 156.125 39.3077 156.53 38.561C156.957 37.8144 157.607 37.185 158.482 36.673C159.357 36.161 160.455 35.7984 161.778 35.585L167.794 34.593V37.441L162.482 38.369C161.522 38.5397 160.818 38.849 160.37 39.297C159.922 39.7237 159.698 40.2784 159.698 40.961C159.698 41.6224 159.943 42.1664 160.434 42.593C160.946 42.9984 161.597 43.201 162.386 43.201C163.367 43.201 164.221 42.9877 164.946 42.561C165.693 42.1344 166.269 41.569 166.674 40.865C167.079 40.1397 167.282 39.3397 167.282 38.465V34.017C167.282 33.1637 166.962 32.4704 166.322 31.937C165.703 31.3824 164.871 31.105 163.826 31.105C162.866 31.105 162.023 31.361 161.298 31.873C160.594 32.3637 160.071 33.0037 159.73 33.793L156.722 32.289C157.042 31.4357 157.565 30.689 158.29 30.049C159.015 29.3877 159.858 28.8757 160.818 28.513C161.799 28.1504 162.834 27.969 163.922 27.969C165.287 27.969 166.493 28.225 167.538 28.737C168.605 29.249 169.426 29.9637 170.002 30.881C170.599 31.777 170.898 32.8224 170.898 34.017V45.665H167.442V42.529L168.178 42.625C167.773 43.329 167.25 43.937 166.61 44.449C165.991 44.961 165.277 45.3557 164.466 45.633C163.677 45.9104 162.791 46.049 161.81 46.049ZM174.806 45.665V28.353H178.262V31.745L177.846 31.297C178.273 30.209 178.955 29.3877 179.894 28.833C180.833 28.257 181.921 27.969 183.158 27.969C184.438 27.969 185.569 28.2464 186.55 28.801C187.531 29.3557 188.299 30.1237 188.854 31.105C189.409 32.0864 189.686 33.217 189.686 34.497V45.665H186.102V35.457C186.102 34.5824 185.942 33.8464 185.622 33.249C185.302 32.6304 184.843 32.161 184.246 31.841C183.67 31.4997 183.009 31.329 182.262 31.329C181.515 31.329 180.843 31.4997 180.246 31.841C179.67 32.161 179.222 32.6304 178.902 33.249C178.582 33.8677 178.422 34.6037 178.422 35.457V45.665H174.806ZM201.588 52.705C200.329 52.705 199.167 52.5024 198.1 52.097C197.033 51.6917 196.116 51.1264 195.348 50.401C194.58 49.697 194.004 48.865 193.62 47.905L196.948 46.529C197.247 47.3397 197.791 48.0117 198.58 48.545C199.391 49.0784 200.383 49.345 201.556 49.345C202.473 49.345 203.295 49.1637 204.02 48.801C204.745 48.4597 205.321 47.9477 205.748 47.265C206.175 46.6037 206.388 45.8037 206.388 44.865V40.961L207.028 41.697C206.431 42.8064 205.599 43.649 204.532 44.225C203.487 44.801 202.303 45.089 200.98 45.089C199.38 45.089 197.94 44.7157 196.66 43.969C195.38 43.2224 194.367 42.1984 193.62 40.897C192.895 39.5957 192.532 38.1344 192.532 36.513C192.532 34.8704 192.895 33.409 193.62 32.129C194.367 30.849 195.369 29.8357 196.628 29.089C197.887 28.3424 199.327 27.969 200.948 27.969C202.271 27.969 203.444 28.257 204.468 28.833C205.513 29.3877 206.367 30.1984 207.028 31.265L206.548 32.161V28.353H209.972V44.865C209.972 46.3584 209.609 47.6917 208.884 48.865C208.18 50.0597 207.199 50.9984 205.94 51.681C204.681 52.3637 203.231 52.705 201.588 52.705ZM201.396 41.729C202.356 41.729 203.209 41.505 203.956 41.057C204.703 40.5877 205.289 39.969 205.716 39.201C206.164 38.4117 206.388 37.5264 206.388 36.545C206.388 35.5637 206.164 34.6784 205.716 33.889C205.268 33.0997 204.671 32.481 203.924 32.033C203.177 31.5637 202.335 31.329 201.396 31.329C200.415 31.329 199.54 31.5637 198.772 32.033C198.004 32.481 197.396 33.0997 196.948 33.889C196.521 34.657 196.308 35.5424 196.308 36.545C196.308 37.505 196.521 38.3797 196.948 39.169C197.396 39.9584 198.004 40.5877 198.772 41.057C199.54 41.505 200.415 41.729 201.396 41.729ZM213.885 45.665V21.441H217.501V37.665L216.093 37.313L224.765 28.353H229.277L222.749 35.297L229.565 45.665H225.405L219.325 36.481L221.469 36.193L216.349 41.633L217.501 39.233V45.665H213.885ZM239.76 46.049C238.096 46.049 236.571 45.6544 235.184 44.865C233.819 44.0757 232.731 42.9984 231.92 41.633C231.11 40.2677 230.704 38.721 230.704 36.993C230.704 35.2437 231.11 33.697 231.92 32.353C232.731 30.9877 233.819 29.921 235.184 29.153C236.55 28.3637 238.075 27.969 239.76 27.969C241.467 27.969 242.992 28.3637 244.336 29.153C245.702 29.921 246.779 30.9877 247.568 32.353C248.379 33.697 248.784 35.2437 248.784 36.993C248.784 38.7424 248.379 40.2997 247.568 41.665C246.758 43.0304 245.67 44.1077 244.304 44.897C242.939 45.665 241.424 46.049 239.76 46.049ZM239.76 42.689C240.784 42.689 241.691 42.4437 242.48 41.953C243.27 41.4624 243.888 40.7904 244.336 39.937C244.806 39.0624 245.04 38.081 245.04 36.993C245.04 35.905 244.806 34.9344 244.336 34.081C243.888 33.2277 243.27 32.5557 242.48 32.065C241.691 31.5744 240.784 31.329 239.76 31.329C238.758 31.329 237.851 31.5744 237.04 32.065C236.251 32.5557 235.622 33.2277 235.152 34.081C234.704 34.9344 234.48 35.905 234.48 36.993C234.48 38.081 234.704 39.0624 235.152 39.937C235.622 40.7904 236.251 41.4624 237.04 41.953C237.851 42.4437 238.758 42.689 239.76 42.689ZM251.995 45.665V21.441H255.611V37.665L254.203 37.313L262.875 28.353H267.387L260.859 35.297L267.675 45.665H263.515L257.435 36.481L259.579 36.193L254.459 41.633L255.611 39.233V45.665H251.995ZM135.142 107.665V83.825H150.662V87.185H138.918V94.353H149.382V97.713H138.918V107.665H135.142ZM160.816 108.049C159.088 108.049 157.552 107.654 156.208 106.865C154.886 106.054 153.851 104.966 153.104 103.601C152.358 102.214 151.984 100.668 151.984 98.961C151.984 97.2117 152.358 95.665 153.104 94.321C153.872 92.977 154.896 91.921 156.176 91.153C157.456 90.3637 158.907 89.969 160.528 89.969C161.83 89.969 162.992 90.193 164.016 90.641C165.04 91.089 165.904 91.7077 166.608 92.497C167.312 93.265 167.846 94.1504 168.208 95.153C168.592 96.1557 168.784 97.2224 168.784 98.353C168.784 98.6304 168.774 98.9184 168.752 99.217C168.731 99.5157 168.688 99.793 168.624 100.049H154.832V97.169H166.576L164.848 98.481C165.062 97.4357 164.987 96.5077 164.624 95.697C164.283 94.865 163.75 94.2144 163.024 93.745C162.32 93.2544 161.488 93.009 160.528 93.009C159.568 93.009 158.715 93.2544 157.968 93.745C157.222 94.2144 156.646 94.897 156.24 95.793C155.835 96.6677 155.675 97.7344 155.76 98.993C155.654 100.166 155.814 101.19 156.24 102.065C156.688 102.94 157.307 103.622 158.096 104.113C158.907 104.604 159.824 104.849 160.848 104.849C161.894 104.849 162.779 104.614 163.504 104.145C164.251 103.676 164.838 103.068 165.264 102.321L168.208 103.761C167.867 104.572 167.334 105.308 166.608 105.969C165.904 106.609 165.051 107.121 164.048 107.505C163.067 107.868 161.99 108.049 160.816 108.049ZM178.393 108.049C176.623 108.049 175.065 107.612 173.721 106.737C172.399 105.862 171.471 104.689 170.937 103.217L173.721 101.905C174.191 102.886 174.831 103.665 175.641 104.241C176.473 104.817 177.391 105.105 178.393 105.105C179.247 105.105 179.94 104.913 180.473 104.529C181.007 104.145 181.273 103.622 181.273 102.961C181.273 102.534 181.156 102.193 180.921 101.937C180.687 101.66 180.388 101.436 180.025 101.265C179.684 101.094 179.332 100.966 178.969 100.881L176.249 100.113C174.756 99.6864 173.636 99.0464 172.889 98.193C172.164 97.3184 171.801 96.305 171.801 95.153C171.801 94.1077 172.068 93.201 172.601 92.433C173.135 91.6437 173.871 91.0357 174.809 90.609C175.748 90.1824 176.804 89.969 177.977 89.969C179.556 89.969 180.964 90.3637 182.201 91.153C183.439 91.921 184.313 92.9984 184.825 94.385L182.041 95.697C181.7 94.865 181.156 94.2037 180.409 93.713C179.684 93.2224 178.863 92.977 177.945 92.977C177.156 92.977 176.527 93.169 176.057 93.553C175.588 93.9157 175.353 94.3957 175.353 94.993C175.353 95.3984 175.46 95.7397 175.673 96.017C175.887 96.273 176.164 96.4864 176.505 96.657C176.847 96.8064 177.199 96.9344 177.561 97.041L180.377 97.873C181.807 98.2784 182.905 98.9184 183.673 99.793C184.441 100.646 184.825 101.67 184.825 102.865C184.825 103.889 184.548 104.796 183.993 105.585C183.46 106.353 182.713 106.961 181.753 107.409C180.793 107.836 179.673 108.049 178.393 108.049ZM195.536 107.857C193.723 107.857 192.315 107.345 191.312 106.321C190.31 105.297 189.808 103.857 189.808 102.001V93.617H186.768V90.353H187.248C188.059 90.353 188.688 90.1184 189.136 89.649C189.584 89.1797 189.808 88.5397 189.808 87.729V86.385H193.424V90.353H197.36V93.617H193.424V101.841C193.424 102.438 193.52 102.95 193.712 103.377C193.904 103.782 194.214 104.102 194.64 104.337C195.067 104.55 195.622 104.657 196.304 104.657C196.475 104.657 196.667 104.646 196.88 104.625C197.094 104.604 197.296 104.582 197.488 104.561V107.665C197.19 107.708 196.859 107.75 196.496 107.793C196.134 107.836 195.814 107.857 195.536 107.857ZM200.697 107.665V90.353H204.313V107.665H200.697ZM200.697 87.985V83.825H204.313V87.985H200.697ZM213.245 107.665L206.461 90.353H210.397L215.613 104.465H214.173L219.389 90.353H223.357L216.541 107.665H213.245ZM230.054 108.049C228.88 108.049 227.846 107.846 226.95 107.441C226.075 107.014 225.392 106.438 224.902 105.713C224.411 104.966 224.166 104.092 224.166 103.089C224.166 102.15 224.368 101.308 224.774 100.561C225.2 99.8144 225.851 99.185 226.726 98.673C227.6 98.161 228.699 97.7984 230.022 97.585L236.038 96.593V99.441L230.726 100.369C229.766 100.54 229.062 100.849 228.614 101.297C228.166 101.724 227.942 102.278 227.942 102.961C227.942 103.622 228.187 104.166 228.678 104.593C229.19 104.998 229.84 105.201 230.63 105.201C231.611 105.201 232.464 104.988 233.19 104.561C233.936 104.134 234.512 103.569 234.918 102.865C235.323 102.14 235.526 101.34 235.526 100.465V96.017C235.526 95.1637 235.206 94.4704 234.566 93.937C233.947 93.3824 233.115 93.105 232.07 93.105C231.11 93.105 230.267 93.361 229.542 93.873C228.838 94.3637 228.315 95.0037 227.974 95.793L224.966 94.289C225.286 93.4357 225.808 92.689 226.534 92.049C227.259 91.3877 228.102 90.8757 229.062 90.513C230.043 90.1504 231.078 89.969 232.166 89.969C233.531 89.969 234.736 90.225 235.782 90.737C236.848 91.249 237.67 91.9637 238.246 92.881C238.843 93.777 239.142 94.8224 239.142 96.017V107.665H235.686V104.529L236.422 104.625C236.016 105.329 235.494 105.937 234.854 106.449C234.235 106.961 233.52 107.356 232.71 107.633C231.92 107.91 231.035 108.049 230.054 108.049ZM243.05 107.665V83.441H246.666V107.665H243.05ZM256.775 91.985V89.265C256.775 87.7077 257.138 86.4277 257.863 85.425C258.61 84.401 259.687 83.7397 261.095 83.441V85.201C260.413 85.3717 259.879 85.6917 259.495 86.161C259.111 86.609 258.877 87.1637 258.791 87.825H260.455V91.985H256.775ZM265.515 107.665V104.945L272.043 97.969C273.323 96.6037 274.326 95.505 275.051 94.673C275.798 93.8197 276.331 93.073 276.651 92.433C276.993 91.793 277.163 91.121 277.163 90.417C277.163 89.265 276.811 88.3797 276.107 87.761C275.403 87.121 274.497 86.801 273.387 86.801C272.235 86.801 271.243 87.1317 270.411 87.793C269.579 88.433 269.003 89.3717 268.683 90.609L265.355 89.649C265.611 88.3904 266.123 87.3024 266.891 86.385C267.659 85.4464 268.598 84.721 269.707 84.209C270.838 83.697 272.054 83.441 273.355 83.441C274.87 83.441 276.193 83.729 277.323 84.305C278.454 84.8597 279.329 85.6384 279.947 86.641C280.587 87.6437 280.907 88.8064 280.907 90.129C280.907 91.0037 280.737 91.857 280.395 92.689C280.075 93.4997 279.574 94.3637 278.891 95.281C278.209 96.177 277.334 97.1904 276.267 98.321L270.507 104.465H281.355V107.665H265.515ZM292.096 108.049C290.816 108.049 289.611 107.814 288.48 107.345C287.371 106.876 286.411 106.214 285.6 105.361C284.811 104.508 284.246 103.505 283.904 102.353L287.104 101.137C287.531 102.268 288.182 103.142 289.056 103.761C289.931 104.38 290.944 104.689 292.096 104.689C293.035 104.689 293.846 104.508 294.528 104.145C295.232 103.782 295.776 103.27 296.16 102.609C296.566 101.948 296.768 101.148 296.768 100.209C296.768 99.2917 296.566 98.5024 296.16 97.841C295.776 97.1797 295.232 96.6784 294.528 96.337C293.846 95.9957 293.035 95.825 292.096 95.825C291.712 95.825 291.318 95.857 290.912 95.921C290.528 95.985 290.187 96.0704 289.888 96.177L289.056 94.417L295.328 87.025H285.184V83.825H299.552V86.865L293.408 94.225L293.312 93.009C294.742 93.0304 296 93.3504 297.088 93.969C298.176 94.5664 299.019 95.3984 299.616 96.465C300.235 97.5104 300.544 98.7264 300.544 100.113C300.544 101.606 300.182 102.961 299.456 104.177C298.731 105.372 297.728 106.321 296.448 107.025C295.19 107.708 293.739 108.049 292.096 108.049Z" fill="#1E1E1E"/>
<path d="M146.726 77.049C144.998 77.049 143.387 76.7397 141.894 76.121C140.422 75.5024 139.12 74.6384 137.99 73.529C136.88 72.4197 136.006 71.1184 135.366 69.625C134.747 68.1317 134.438 66.4997 134.438 64.729C134.438 62.9584 134.747 61.3264 135.366 59.833C136.006 58.3184 136.88 57.017 137.99 55.929C139.099 54.8197 140.4 53.9664 141.894 53.369C143.387 52.7504 144.998 52.441 146.726 52.441C148.475 52.441 150.086 52.7504 151.558 53.369C153.051 53.9664 154.352 54.8197 155.462 55.929C156.592 57.0384 157.467 58.3397 158.086 59.833C158.704 61.3264 159.014 62.9584 159.014 64.729C159.014 66.4997 158.694 68.1317 158.054 69.625C157.435 71.1184 156.571 72.4197 155.462 73.529C154.352 74.6384 153.051 75.5024 151.558 76.121C150.064 76.7397 148.454 77.049 146.726 77.049ZM146.726 73.593C147.963 73.593 149.094 73.369 150.118 72.921C151.163 72.473 152.07 71.8544 152.838 71.065C153.606 70.2544 154.203 69.3157 154.63 68.249C155.056 67.161 155.27 65.9877 155.27 64.729C155.27 63.4704 155.056 62.3077 154.63 61.241C154.203 60.1744 153.606 59.2357 152.838 58.425C152.07 57.6144 151.163 56.985 150.118 56.537C149.094 56.089 147.963 55.865 146.726 55.865C145.488 55.865 144.347 56.089 143.302 56.537C142.278 56.985 141.382 57.6144 140.614 58.425C139.846 59.2357 139.248 60.1744 138.822 61.241C138.416 62.3077 138.214 63.4704 138.214 64.729C138.214 65.9877 138.416 67.161 138.822 68.249C139.248 69.3157 139.846 70.2544 140.614 71.065C141.382 71.8544 142.288 72.473 143.334 72.921C144.379 73.369 145.51 73.593 146.726 73.593ZM162.563 83.065V59.353H166.019V62.937L165.603 62.105C166.243 61.1237 167.097 60.3557 168.163 59.801C169.23 59.2464 170.446 58.969 171.811 58.969C173.454 58.969 174.926 59.3637 176.227 60.153C177.55 60.9424 178.585 62.0197 179.331 63.385C180.099 64.7504 180.483 66.2864 180.483 67.993C180.483 69.6997 180.099 71.2357 179.331 72.601C178.585 73.9664 177.561 75.0544 176.259 75.865C174.958 76.6544 173.475 77.049 171.811 77.049C170.467 77.049 169.241 76.7717 168.131 76.217C167.043 75.6624 166.201 74.8624 165.603 73.817L166.179 73.145V83.065H162.563ZM171.459 73.689C172.483 73.689 173.39 73.4437 174.179 72.953C174.969 72.4624 175.587 71.7904 176.035 70.937C176.505 70.0624 176.739 69.081 176.739 67.993C176.739 66.905 176.505 65.9344 176.035 65.081C175.587 64.2277 174.969 63.5557 174.179 63.065C173.39 62.5744 172.483 62.329 171.459 62.329C170.457 62.329 169.55 62.5744 168.739 63.065C167.95 63.5557 167.321 64.2277 166.851 65.081C166.403 65.9344 166.179 66.905 166.179 67.993C166.179 69.081 166.403 70.0624 166.851 70.937C167.321 71.7904 167.95 72.4624 168.739 72.953C169.55 73.4437 170.457 73.689 171.459 73.689ZM191.809 77.049C190.081 77.049 188.545 76.6544 187.201 75.865C185.878 75.0544 184.844 73.9664 184.097 72.601C183.35 71.2144 182.977 69.6677 182.977 67.961C182.977 66.2117 183.35 64.665 184.097 63.321C184.865 61.977 185.889 60.921 187.169 60.153C188.449 59.3637 189.9 58.969 191.521 58.969C192.822 58.969 193.985 59.193 195.009 59.641C196.033 60.089 196.897 60.7077 197.601 61.497C198.305 62.265 198.838 63.1504 199.201 64.153C199.585 65.1557 199.777 66.2224 199.777 67.353C199.777 67.6304 199.766 67.9184 199.745 68.217C199.724 68.5157 199.681 68.793 199.617 69.049H185.825V66.169H197.569L195.841 67.481C196.054 66.4357 195.98 65.5077 195.617 64.697C195.276 63.865 194.742 63.2144 194.017 62.745C193.313 62.2544 192.481 62.009 191.521 62.009C190.561 62.009 189.708 62.2544 188.961 62.745C188.214 63.2144 187.638 63.897 187.233 64.793C186.828 65.6677 186.668 66.7344 186.753 67.993C186.646 69.1664 186.806 70.1904 187.233 71.065C187.681 71.9397 188.3 72.6224 189.089 73.113C189.9 73.6037 190.817 73.849 191.841 73.849C192.886 73.849 193.772 73.6144 194.497 73.145C195.244 72.6757 195.83 72.0677 196.257 71.321L199.201 72.761C198.86 73.5717 198.326 74.3077 197.601 74.969C196.897 75.609 196.044 76.121 195.041 76.505C194.06 76.8677 192.982 77.049 191.809 77.049ZM202.986 76.665V59.353H206.442V62.745L206.026 62.297C206.453 61.209 207.135 60.3877 208.074 59.833C209.013 59.257 210.101 58.969 211.338 58.969C212.618 58.969 213.749 59.2464 214.73 59.801C215.711 60.3557 216.479 61.1237 217.034 62.105C217.589 63.0864 217.866 64.217 217.866 65.497V76.665H214.282V66.457C214.282 65.5824 214.122 64.8464 213.802 64.249C213.482 63.6304 213.023 63.161 212.426 62.841C211.85 62.4997 211.189 62.329 210.442 62.329C209.695 62.329 209.023 62.4997 208.426 62.841C207.85 63.161 207.402 63.6304 207.082 64.249C206.762 64.8677 206.602 65.6037 206.602 66.457V76.665H202.986ZM235.394 77.049C233.9 77.049 232.514 76.7717 231.234 76.217C229.954 75.641 228.866 74.8624 227.97 73.881C227.074 72.8997 226.412 71.769 225.986 70.489L229.186 69.145C229.762 70.617 230.604 71.7477 231.714 72.537C232.823 73.3264 234.103 73.721 235.554 73.721C236.407 73.721 237.154 73.593 237.794 73.337C238.434 73.0597 238.924 72.6757 239.266 72.185C239.628 71.6944 239.81 71.129 239.81 70.489C239.81 69.6144 239.564 68.921 239.074 68.409C238.583 67.897 237.858 67.4917 236.898 67.193L232.418 65.785C230.626 65.2304 229.26 64.3877 228.322 63.257C227.383 62.105 226.914 60.761 226.914 59.225C226.914 57.881 227.244 56.7077 227.906 55.705C228.567 54.681 229.474 53.881 230.626 53.305C231.799 52.729 233.132 52.441 234.626 52.441C236.055 52.441 237.356 52.697 238.53 53.209C239.703 53.6997 240.706 54.3824 241.538 55.257C242.391 56.1317 243.01 57.145 243.394 58.297L240.258 59.673C239.788 58.4144 239.052 57.4437 238.05 56.761C237.068 56.0784 235.927 55.737 234.626 55.737C233.836 55.737 233.143 55.8757 232.546 56.153C231.948 56.409 231.479 56.793 231.138 57.305C230.818 57.7957 230.658 58.3717 230.658 59.033C230.658 59.801 230.903 60.4837 231.394 61.081C231.884 61.6784 232.631 62.1264 233.634 62.425L237.794 63.737C239.692 64.313 241.122 65.145 242.082 66.233C243.042 67.2997 243.522 68.633 243.522 70.233C243.522 71.5557 243.17 72.729 242.466 73.753C241.783 74.777 240.834 75.5877 239.618 76.185C238.402 76.761 236.994 77.049 235.394 77.049ZM255.44 77.049C253.776 77.049 252.251 76.6544 250.864 75.865C249.499 75.0757 248.411 73.9984 247.6 72.633C246.79 71.2677 246.384 69.721 246.384 67.993C246.384 66.2437 246.79 64.697 247.6 63.353C248.411 61.9877 249.499 60.921 250.864 60.153C252.23 59.3637 253.755 58.969 255.44 58.969C257.147 58.969 258.672 59.3637 260.016 60.153C261.382 60.921 262.459 61.9877 263.248 63.353C264.059 64.697 264.464 66.2437 264.464 67.993C264.464 69.7424 264.059 71.2997 263.248 72.665C262.438 74.0304 261.35 75.1077 259.984 75.897C258.619 76.665 257.104 77.049 255.44 77.049ZM255.44 73.689C256.464 73.689 257.371 73.4437 258.16 72.953C258.95 72.4624 259.568 71.7904 260.016 70.937C260.486 70.0624 260.72 69.081 260.72 67.993C260.72 66.905 260.486 65.9344 260.016 65.081C259.568 64.2277 258.95 63.5557 258.16 63.065C257.371 62.5744 256.464 62.329 255.44 62.329C254.438 62.329 253.531 62.5744 252.72 63.065C251.931 63.5557 251.302 64.2277 250.832 65.081C250.384 65.9344 250.16 66.905 250.16 67.993C250.16 69.081 250.384 70.0624 250.832 70.937C251.302 71.7904 251.931 72.4624 252.72 72.953C253.531 73.4437 254.438 73.689 255.44 73.689ZM273.851 77.049C272.549 77.049 271.408 76.761 270.427 76.185C269.445 75.5877 268.677 74.7664 268.123 73.721C267.589 72.6544 267.323 71.4277 267.323 70.041V59.353H270.939V69.721C270.939 70.5104 271.099 71.2037 271.419 71.801C271.739 72.3984 272.187 72.8677 272.763 73.209C273.339 73.529 274 73.689 274.747 73.689C275.515 73.689 276.187 73.5184 276.763 73.177C277.339 72.8357 277.787 72.3557 278.107 71.737C278.448 71.1184 278.619 70.393 278.619 69.561V59.353H282.203V76.665H278.779V73.273L279.163 73.721C278.757 74.7877 278.085 75.609 277.147 76.185C276.208 76.761 275.109 77.049 273.851 77.049ZM286.105 76.665V59.353H289.561V62.841L289.241 62.329C289.625 61.1984 290.243 60.3877 291.097 59.897C291.95 59.385 292.974 59.129 294.169 59.129H295.225V62.425H293.721C292.526 62.425 291.555 62.7984 290.809 63.545C290.083 64.2704 289.721 65.3157 289.721 66.681V76.665H286.105ZM305.602 77.049C303.874 77.049 302.338 76.6544 300.994 75.865C299.672 75.0544 298.616 73.9664 297.826 72.601C297.058 71.2357 296.674 69.689 296.674 67.961C296.674 66.2544 297.058 64.7184 297.826 63.353C298.594 61.9877 299.65 60.921 300.994 60.153C302.338 59.3637 303.874 58.969 305.602 58.969C306.776 58.969 307.874 59.1824 308.898 59.609C309.922 60.0144 310.808 60.5797 311.554 61.305C312.322 62.0304 312.888 62.873 313.25 63.833L310.082 65.305C309.72 64.409 309.133 63.6944 308.322 63.161C307.533 62.6064 306.626 62.329 305.602 62.329C304.621 62.329 303.736 62.5744 302.946 63.065C302.178 63.5344 301.57 64.2064 301.122 65.081C300.674 65.9344 300.45 66.905 300.45 67.993C300.45 69.081 300.674 70.0624 301.122 70.937C301.57 71.7904 302.178 72.4624 302.946 72.953C303.736 73.4437 304.621 73.689 305.602 73.689C306.648 73.689 307.554 73.4224 308.322 72.889C309.112 72.3344 309.698 71.5984 310.082 70.681L313.25 72.185C312.909 73.1024 312.354 73.9344 311.586 74.681C310.84 75.4064 309.954 75.9824 308.93 76.409C307.906 76.8357 306.797 77.049 305.602 77.049ZM324.593 77.049C322.865 77.049 321.329 76.6544 319.985 75.865C318.662 75.0544 317.627 73.9664 316.881 72.601C316.134 71.2144 315.761 69.6677 315.761 67.961C315.761 66.2117 316.134 64.665 316.881 63.321C317.649 61.977 318.673 60.921 319.953 60.153C321.233 59.3637 322.683 58.969 324.305 58.969C325.606 58.969 326.769 59.193 327.793 59.641C328.817 60.089 329.681 60.7077 330.385 61.497C331.089 62.265 331.622 63.1504 331.985 64.153C332.369 65.1557 332.561 66.2224 332.561 67.353C332.561 67.6304 332.55 67.9184 332.529 68.217C332.507 68.5157 332.465 68.793 332.401 69.049H318.609V66.169H330.353L328.625 67.481C328.838 66.4357 328.763 65.5077 328.401 64.697C328.059 63.865 327.526 63.2144 326.801 62.745C326.097 62.2544 325.265 62.009 324.305 62.009C323.345 62.009 322.491 62.2544 321.745 62.745C320.998 63.2144 320.422 63.897 320.017 64.793C319.611 65.6677 319.451 66.7344 319.537 67.993C319.43 69.1664 319.59 70.1904 320.017 71.065C320.465 71.9397 321.083 72.6224 321.873 73.113C322.683 73.6037 323.601 73.849 324.625 73.849C325.67 73.849 326.555 73.6144 327.281 73.145C328.027 72.6757 328.614 72.0677 329.041 71.321L331.985 72.761C331.643 73.5717 331.11 74.3077 330.385 74.969C329.681 75.609 328.827 76.121 327.825 76.505C326.843 76.8677 325.766 77.049 324.593 77.049Z" fill="url(#paint1_linear_828_25)"/>
<defs>
<linearGradient id="paint0_linear_828_25" x1="66.1777" y1="-6.33496" x2="103.678" y2="178.165" gradientUnits="userSpaceOnUse">
<stop stop-color="#909C46"/>
<stop offset="1" stop-color="#4C7617"/>
</linearGradient>
<linearGradient id="paint1_linear_828_25" x1="233.678" y1="-12.335" x2="287.178" y2="149.665" gradientUnits="userSpaceOnUse">
<stop stop-color="#727D2C"/>
<stop offset="1" stop-color="#4A7617"/>
</linearGradient>
</defs>
</svg>
