<svg width="794" height="350" viewBox="0 0 794 350" fill="none" xmlns="http://www.w3.org/2000/svg">
<path d="M0 196.191H110.301V306.492H0V196.191Z" fill="black"/>
<path d="M365.422 196.191H475.722L365.422 306.492V196.191Z" fill="black"/>
<path d="M365.422 196.191H475.722L365.422 306.492V196.191Z" fill="black"/>
<path d="M52.7954 138.72C41.7964 138.72 32.3515 136.305 24.4609 131.475C16.6181 126.646 10.5686 119.975 6.31249 111.463C2.10416 102.904 0 93.0536 0 81.912C0 70.7226 2.15199 60.8482 6.45596 52.2888C10.7599 43.6816 16.8333 36.9871 24.6761 32.2053C32.5667 27.3757 41.892 24.9609 52.6519 24.9609C61.5946 24.9609 69.5092 26.6106 76.3955 29.9101C83.3297 33.1617 88.8531 37.7761 92.9658 43.7534C97.0785 49.6828 99.4218 56.6164 99.9956 64.5541H75.1761C74.1718 59.2463 71.7807 54.8232 68.0028 51.2847C64.2727 47.6983 59.2753 45.9052 53.0106 45.9052C47.7024 45.9052 43.0397 47.3397 39.0227 50.2088C35.0056 53.03 31.8733 57.0945 29.6257 62.4023C27.4259 67.7101 26.326 74.0699 26.326 81.4817C26.326 88.9891 27.4259 95.4445 29.6257 100.848C31.8255 106.204 34.91 110.34 38.8792 113.257C42.8963 116.126 47.6067 117.56 53.0106 117.56C56.8364 117.56 60.2556 116.843 63.2684 115.408C66.329 113.926 68.8875 111.798 70.9438 109.025C73.0002 106.251 74.4109 102.88 75.1761 98.9113H99.9956C99.3739 106.706 97.0785 113.615 93.1093 119.64C89.1401 125.618 83.7362 130.304 76.8976 133.699C70.0591 137.046 62.025 138.72 52.7954 138.72Z" fill="black"/>
<path d="M117.278 136.568V26.3955H142.456V44.7575H143.604C145.613 38.3978 149.056 33.4964 153.934 30.0535C158.859 26.5628 164.478 24.8175 170.791 24.8175C172.226 24.8175 173.828 24.8892 175.597 25.0327C177.414 25.1283 178.921 25.2957 180.116 25.5347V49.4198C179.016 49.0372 177.271 48.7025 174.88 48.4156C172.536 48.0809 170.265 47.9135 168.065 47.9135C163.331 47.9135 159.075 48.9416 155.297 50.9978C151.567 53.0061 148.626 55.8035 146.474 59.3898C144.322 62.9761 143.246 67.1124 143.246 71.7986V136.568H117.278Z" fill="black"/>
<path d="M237.569 138.72C226.522 138.72 216.982 136.424 208.948 131.834C200.962 127.196 194.816 120.645 190.512 112.181C186.209 103.669 184.057 93.6513 184.057 82.1272C184.057 70.7944 186.209 60.8482 190.512 52.2888C194.864 43.6816 200.938 36.9871 208.733 32.2053C216.528 27.3757 225.686 24.9609 236.206 24.9609C242.997 24.9609 249.405 26.0607 255.431 28.2604C261.504 30.4122 266.86 33.7594 271.499 38.3021C276.185 42.8448 279.868 48.6308 282.546 55.66C285.224 62.6414 286.563 70.9617 286.563 80.6209V88.5826H196.251V71.0813H261.672C261.624 66.1082 260.548 61.6851 258.444 57.8118C256.339 53.8908 253.398 50.8065 249.62 48.5591C245.89 46.3116 241.538 45.1879 236.565 45.1879C231.257 45.1879 226.594 46.479 222.577 49.0611C218.56 51.5955 215.428 54.9427 213.18 59.1029C210.98 63.2152 209.856 67.734 209.809 72.6593V87.9371C209.809 94.3447 210.98 99.8437 213.324 104.434C215.667 108.977 218.943 112.468 223.151 114.906C227.359 117.297 232.285 118.493 237.928 118.493C241.706 118.493 245.125 117.967 248.186 116.915C251.246 115.815 253.9 114.213 256.148 112.109C258.396 110.005 260.093 107.399 261.241 104.291L285.487 107.016C283.957 113.424 281.039 119.019 276.735 123.8C272.479 128.534 267.028 132.216 260.38 134.846C253.733 137.429 246.129 138.72 237.569 138.72Z" fill="black"/>
<path d="M336.197 138.791C329.215 138.791 322.926 137.548 317.331 135.062C311.784 132.527 307.384 128.797 304.132 123.872C300.928 118.947 299.326 112.874 299.326 105.654C299.326 99.4373 300.474 94.2968 302.769 90.2323C305.065 86.1678 308.197 82.9162 312.166 80.4775C316.136 78.0388 320.607 76.1978 325.581 74.9545C330.602 73.6634 335.79 72.731 341.147 72.1572C347.603 71.4877 352.839 70.89 356.856 70.364C360.873 69.7902 363.79 68.9295 365.607 67.7818C367.473 66.5864 368.405 64.7454 368.405 62.2589V61.8285C368.405 56.4251 366.803 52.241 363.599 49.2763C360.395 46.3116 355.78 44.8293 349.754 44.8293C343.394 44.8293 338.349 46.216 334.619 48.9894C330.937 51.7628 328.45 55.0384 327.159 58.816L302.913 55.3731C304.826 48.6786 307.982 43.0839 312.382 38.589C316.781 34.0463 322.161 30.6513 328.522 28.4038C334.882 26.1086 341.912 24.9609 349.611 24.9609C354.919 24.9609 360.204 25.5826 365.464 26.8258C370.724 28.0691 375.53 30.1253 379.882 32.9943C384.234 35.8156 387.725 39.6649 390.355 44.5423C393.033 49.4198 394.372 55.5166 394.372 62.8327V136.568H369.409V121.434H368.548C366.97 124.494 364.747 127.363 361.877 130.041C359.056 132.671 355.493 134.799 351.189 136.424C346.933 138.002 341.936 138.791 336.197 138.791ZM342.94 119.712C348.152 119.712 352.672 118.684 356.497 116.628C360.323 114.524 363.264 111.75 365.321 108.307C367.425 104.865 368.477 101.111 368.477 97.0464V84.0638C367.664 84.7333 366.277 85.3549 364.316 85.9287C362.403 86.5025 360.251 87.0046 357.86 87.435C355.469 87.8653 353.102 88.2479 350.759 88.5826C348.415 88.9173 346.383 89.2043 344.661 89.4433C340.788 89.9693 337.321 90.8301 334.26 92.0255C331.2 93.221 328.785 94.8946 327.015 97.0464C325.246 99.1504 324.361 101.876 324.361 105.223C324.361 110.005 326.107 113.615 329.598 116.054C333.089 118.493 337.536 119.712 342.94 119.712Z" fill="black"/>
<path d="M471.462 26.3955V46.479H408.122V26.3955H471.462ZM423.76 0H449.727V103.43C449.727 106.921 450.253 109.599 451.305 111.463C452.405 113.281 453.84 114.524 455.609 115.193C457.379 115.863 459.339 116.197 461.491 116.197C463.117 116.197 464.6 116.078 465.939 115.839C467.326 115.6 468.378 115.385 469.095 115.193L473.471 135.492C472.084 135.97 470.099 136.496 467.517 137.07C464.982 137.644 461.874 137.978 458.192 138.074C451.688 138.265 445.83 137.285 440.617 135.133C435.405 132.934 431.268 129.539 428.207 124.948C425.195 120.358 423.712 114.619 423.76 107.734V0Z" fill="black"/>
<path d="M610.738 136.568V26.3955H635.917V44.7575H637.064C639.073 38.3978 642.516 33.4964 647.394 30.0535C652.319 26.5628 657.939 24.8175 664.251 24.8175C665.686 24.8175 667.288 24.8892 669.057 25.0327C670.874 25.1283 672.381 25.2957 673.576 25.5347V49.4198C672.476 49.0372 670.731 48.7025 668.34 48.4156C665.997 48.0809 663.725 47.9135 661.525 47.9135C656.791 47.9135 652.535 48.9416 648.757 50.9978C645.027 53.0061 642.086 55.8035 639.934 59.3898C637.782 62.9761 636.706 67.1124 636.706 71.7986V136.568H610.738Z" fill="black"/>
<path d="M773.872 55.5166L750.2 58.0987C749.53 55.7078 748.359 53.4604 746.685 51.3564C745.059 49.2524 742.859 47.5549 740.086 46.2638C737.312 44.9727 733.917 44.3272 729.9 44.3272C724.496 44.3272 719.953 45.4987 716.27 47.8418C712.636 50.1849 710.842 53.2213 710.89 56.9511C710.842 60.1549 712.014 62.761 714.405 64.7693C716.844 66.7777 720.861 68.4274 726.456 69.7185L745.25 73.7352C755.676 75.9826 763.423 79.545 768.492 84.4225C773.609 89.2999 776.191 95.6836 776.239 103.574C776.191 110.507 774.159 116.628 770.142 121.936C766.172 127.196 760.649 131.308 753.571 134.273C746.494 137.237 738.364 138.72 729.182 138.72C715.696 138.72 704.841 135.898 696.615 130.256C688.39 124.566 683.488 116.652 681.91 106.514L707.232 104.076C708.38 109.049 710.819 112.802 714.549 115.337C718.279 117.871 723.133 119.138 729.11 119.138C735.279 119.138 740.229 117.871 743.959 115.337C747.737 112.802 749.626 109.67 749.626 105.94C749.626 102.785 748.407 100.178 745.968 98.1223C743.577 96.0661 739.846 94.4881 734.777 93.3883L715.983 89.4433C705.415 87.2437 697.596 83.5378 692.527 78.3257C687.458 73.0657 684.947 66.419 684.995 58.3856C684.947 51.5955 686.788 45.7139 690.518 40.7408C694.296 35.72 699.533 31.8467 706.228 29.1211C712.971 26.3477 720.742 24.9609 729.541 24.9609C742.453 24.9609 752.615 27.7105 760.027 33.2095C767.487 38.7086 772.102 46.1443 773.872 55.5166Z" fill="black"/>
<path d="M180.712 350C171.387 350 163.377 348.733 156.682 346.198C149.987 343.712 144.607 340.365 140.542 336.157C136.477 331.949 133.655 327.287 132.077 322.17L155.462 316.504C156.514 318.655 158.045 320.783 160.053 322.887C162.062 325.039 164.764 326.808 168.159 328.195C171.602 329.63 175.93 330.347 181.143 330.347C188.507 330.347 194.604 328.554 199.434 324.967C204.265 321.429 206.68 315.595 206.68 307.466V286.594H205.388C204.049 289.271 202.089 292.021 199.506 294.842C196.972 297.663 193.6 300.03 189.392 301.943C185.231 303.856 179.995 304.812 173.682 304.812C165.218 304.812 157.542 302.828 150.656 298.859C143.818 294.842 138.366 288.865 134.301 280.927C130.284 272.941 128.275 262.948 128.275 250.945C128.275 238.847 130.284 228.638 134.301 220.318C138.366 211.95 143.842 205.614 150.728 201.31C157.614 196.959 165.29 194.783 173.754 194.783C180.21 194.783 185.518 195.883 189.679 198.083C193.887 200.234 197.235 202.84 199.721 205.901C202.208 208.913 204.097 211.759 205.388 214.436H206.823V196.218H232.432V308.183C232.432 317.603 230.184 325.398 225.689 331.566C221.193 337.735 215.048 342.349 207.253 345.409C199.458 348.47 190.611 350 180.712 350ZM180.927 284.442C186.427 284.442 191.113 283.103 194.987 280.425C198.861 277.747 201.802 273.898 203.81 268.877C205.819 263.856 206.823 257.831 206.823 250.802C206.823 243.868 205.819 237.795 203.81 232.583C201.85 227.371 198.932 223.33 195.059 220.461C191.233 217.544 186.523 216.086 180.927 216.086C175.141 216.086 170.311 217.592 166.437 220.605C162.564 223.617 159.647 227.754 157.686 233.014C155.725 238.226 154.745 244.155 154.745 250.802C154.745 257.544 155.725 263.45 157.686 268.518C159.694 273.539 162.636 277.46 166.509 280.282C170.43 283.055 175.237 284.442 180.927 284.442Z" fill="black"/>
<path d="M286.71 308.614C279.728 308.614 273.44 307.37 267.845 304.884C262.297 302.349 257.898 298.62 254.646 293.694C251.442 288.769 249.84 282.696 249.84 275.476C249.84 269.26 250.987 264.119 253.283 260.055C255.578 255.99 258.711 252.738 262.68 250.3C266.649 247.861 271.121 246.02 276.094 244.777C281.115 243.486 286.304 242.553 291.66 241.979C298.116 241.31 303.353 240.712 307.37 240.186C311.387 239.612 314.304 238.752 316.121 237.604C317.986 236.409 318.919 234.568 318.919 232.081V231.651C318.919 226.247 317.316 222.063 314.112 219.099C310.908 216.134 306.294 214.652 300.268 214.652C293.908 214.652 288.862 216.038 285.132 218.812C281.45 221.585 278.963 224.861 277.672 228.638L253.426 225.195C255.339 218.501 258.496 212.906 262.895 208.411C267.295 203.869 272.675 200.473 279.035 198.226C285.395 195.931 292.425 194.783 300.124 194.783C305.433 194.783 310.717 195.405 315.977 196.648C321.238 197.891 326.044 199.947 330.396 202.817C334.748 205.638 338.239 209.487 340.869 214.365C343.547 219.242 344.886 225.339 344.886 232.655V306.39H319.923V291.256H319.062C317.484 294.316 315.26 297.185 312.391 299.863C309.569 302.493 306.007 304.621 301.703 306.247C297.446 307.825 292.449 308.614 286.71 308.614ZM293.453 289.534C298.666 289.534 303.185 288.506 307.011 286.45C310.837 284.346 313.778 281.573 315.834 278.13C317.938 274.687 318.99 270.933 318.99 266.869V253.886C318.177 254.556 316.79 255.177 314.83 255.751C312.917 256.325 310.765 256.827 308.374 257.257C305.983 257.688 303.615 258.07 301.272 258.405C298.929 258.74 296.897 259.027 295.175 259.266C291.301 259.792 287.834 260.652 284.774 261.848C281.713 263.043 279.298 264.717 277.529 266.869C275.759 268.973 274.875 271.698 274.875 275.045C274.875 279.827 276.62 283.438 280.111 285.876C283.602 288.315 288.049 289.534 293.453 289.534Z" fill="black"/>
<path d="M548.652 196.218V216.301H485.312V196.218H548.652ZM500.95 169.822H526.917V273.252C526.917 276.743 527.443 279.421 528.495 281.286C529.595 283.103 531.03 284.346 532.799 285.016C534.569 285.685 536.529 286.02 538.681 286.02C540.307 286.02 541.79 285.9 543.129 285.661C544.516 285.422 545.568 285.207 546.285 285.016L550.661 305.314C549.274 305.792 547.289 306.318 544.707 306.892C542.172 307.466 539.064 307.801 535.382 307.896C528.878 308.088 523.02 307.107 517.807 304.956C512.594 302.756 508.458 299.361 505.397 294.77C502.384 290.18 500.902 284.442 500.95 277.556V169.822Z" fill="black"/>
<path d="M615.108 308.542C604.061 308.542 594.52 306.247 586.486 301.656C578.5 297.018 572.355 290.467 568.051 282.003C563.747 273.491 561.595 263.474 561.595 251.949C561.595 240.617 563.747 230.671 568.051 222.111C572.403 213.504 578.476 206.809 586.271 202.028C594.066 197.198 603.224 194.783 613.745 194.783C620.535 194.783 626.944 195.883 632.969 198.083C639.042 200.234 644.399 203.582 649.037 208.124C653.724 212.667 657.406 218.453 660.084 225.482C662.762 232.464 664.101 240.784 664.101 250.443V258.405H573.789V240.904H639.21C639.162 235.93 638.086 231.507 635.982 227.634C633.878 223.713 630.937 220.629 627.159 218.381C623.429 216.134 619.077 215.01 614.103 215.01C608.795 215.01 604.133 216.301 600.115 218.883C596.098 221.418 592.966 224.765 590.718 228.925C588.519 233.037 587.395 237.556 587.347 242.482V257.759C587.347 264.167 588.519 269.666 590.862 274.256C593.205 278.799 596.481 282.29 600.689 284.729C604.898 287.12 609.823 288.315 615.466 288.315C619.244 288.315 622.664 287.789 625.724 286.737C628.785 285.637 631.439 284.035 633.686 281.931C635.934 279.827 637.632 277.221 638.78 274.113L663.025 276.839C661.495 283.246 658.578 288.841 654.274 293.623C650.018 298.357 644.566 302.039 637.919 304.669C631.271 307.251 623.668 308.542 615.108 308.542Z" fill="black"/>
<path d="M180.712 350C171.387 350 163.377 348.733 156.682 346.199C149.987 343.712 144.607 340.365 140.542 336.157C136.477 331.949 133.655 327.287 132.077 322.17L155.462 316.504C156.514 318.655 158.045 320.783 160.053 322.887C162.062 325.039 164.764 326.808 168.159 328.195C171.602 329.63 175.93 330.347 181.143 330.347C188.507 330.347 194.604 328.554 199.434 324.967C204.264 321.429 206.679 315.595 206.679 307.466V286.594H205.388C204.049 289.271 202.089 292.021 199.506 294.842C196.972 297.663 193.6 300.03 189.392 301.943C185.231 303.856 179.995 304.812 173.682 304.812C165.218 304.812 157.542 302.828 150.656 298.859C143.818 294.842 138.366 288.865 134.301 280.927C130.284 272.942 128.275 262.948 128.275 250.945C128.275 238.847 130.284 228.638 134.301 220.318C138.366 211.95 143.842 205.614 150.728 201.31C157.614 196.959 165.29 194.783 173.754 194.783C180.21 194.783 185.518 195.883 189.679 198.083C193.887 200.234 197.235 202.841 199.721 205.901C202.208 208.913 204.097 211.759 205.388 214.436H206.823V196.218H232.432V308.183C232.432 317.603 230.184 325.398 225.689 331.566C221.193 337.735 215.048 342.349 207.253 345.41C199.458 348.47 190.611 350 180.712 350ZM180.927 284.442C186.427 284.442 191.113 283.103 194.987 280.425C198.861 277.747 201.802 273.898 203.81 268.877C205.819 263.856 206.823 257.831 206.823 250.802C206.823 243.868 205.819 237.795 203.81 232.583C201.849 227.371 198.932 223.33 195.059 220.461C191.233 217.545 186.523 216.086 180.927 216.086C175.141 216.086 170.311 217.592 166.437 220.605C162.564 223.617 159.647 227.754 157.686 233.014C155.725 238.226 154.745 244.155 154.745 250.802C154.745 257.544 155.725 263.45 157.686 268.518C159.694 273.539 162.636 277.46 166.509 280.282C170.43 283.055 175.237 284.442 180.927 284.442Z" fill="black"/>
<path d="M286.71 308.614C279.728 308.614 273.44 307.37 267.845 304.884C262.297 302.35 257.898 298.62 254.646 293.694C251.442 288.769 249.84 282.696 249.84 275.476C249.84 269.26 250.987 264.119 253.283 260.055C255.578 255.99 258.711 252.738 262.68 250.3C266.649 247.861 271.12 246.02 276.094 244.777C281.115 243.486 286.304 242.553 291.66 241.979C298.116 241.31 303.352 240.712 307.37 240.186C311.387 239.612 314.304 238.752 316.121 237.604C317.986 236.409 318.919 234.568 318.919 232.081V231.651C318.919 226.247 317.316 222.063 314.112 219.099C310.908 216.134 306.294 214.652 300.268 214.652C293.908 214.652 288.862 216.038 285.132 218.812C281.45 221.585 278.963 224.861 277.672 228.638L253.426 225.195C255.339 218.501 258.496 212.906 262.895 208.411C267.295 203.869 272.675 200.474 279.035 198.226C285.395 195.931 292.425 194.783 300.124 194.783C305.433 194.783 310.717 195.405 315.977 196.648C321.238 197.891 326.044 199.948 330.396 202.817C334.748 205.638 338.239 209.487 340.869 214.365C343.547 219.242 344.886 225.339 344.886 232.655V306.39H319.923V291.256H319.062C317.484 294.316 315.26 297.185 312.391 299.863C309.569 302.493 306.007 304.621 301.703 306.247C297.446 307.825 292.449 308.614 286.71 308.614ZM293.453 289.534C298.666 289.534 303.185 288.506 307.011 286.45C310.837 284.346 313.778 281.573 315.834 278.13C317.938 274.687 318.99 270.933 318.99 266.869V253.886C318.177 254.556 316.79 255.177 314.83 255.751C312.917 256.325 310.765 256.827 308.374 257.257C305.983 257.688 303.615 258.07 301.272 258.405C298.929 258.74 296.896 259.027 295.175 259.266C291.301 259.792 287.834 260.652 284.774 261.848C281.713 263.043 279.298 264.717 277.529 266.869C275.759 268.973 274.874 271.698 274.874 275.046C274.874 279.827 276.62 283.438 280.111 285.876C283.602 288.315 288.049 289.534 293.453 289.534Z" fill="black"/>
<path d="M548.652 196.218V216.301H485.312V196.218H548.652ZM500.95 169.822H526.917V273.252C526.917 276.743 527.443 279.421 528.495 281.286C529.595 283.103 531.03 284.346 532.799 285.016C534.569 285.685 536.529 286.02 538.681 286.02C540.307 286.02 541.79 285.9 543.129 285.661C544.516 285.422 545.568 285.207 546.285 285.016L550.661 305.314C549.274 305.792 547.289 306.318 544.707 306.892C542.172 307.466 539.064 307.801 535.382 307.896C528.878 308.088 523.02 307.107 517.807 304.956C512.594 302.756 508.458 299.361 505.397 294.77C502.384 290.18 500.902 284.442 500.95 277.556V169.822Z" fill="black"/>
<path d="M615.108 308.542C604.061 308.542 594.52 306.247 586.486 301.656C578.5 297.018 572.355 290.467 568.051 282.003C563.747 273.491 561.595 263.474 561.595 251.949C561.595 240.617 563.747 230.671 568.051 222.111C572.403 213.504 578.476 206.809 586.271 202.028C594.066 197.198 603.224 194.783 613.745 194.783C620.535 194.783 626.944 195.883 632.969 198.083C639.043 200.234 644.399 203.582 649.037 208.124C653.724 212.667 657.406 218.453 660.084 225.482C662.762 232.464 664.101 240.784 664.101 250.443V258.405H573.789V240.904H639.21C639.162 235.93 638.086 231.507 635.982 227.634C633.878 223.713 630.937 220.629 627.159 218.381C623.429 216.134 619.077 215.01 614.103 215.01C608.795 215.01 604.133 216.301 600.115 218.883C596.098 221.418 592.966 224.765 590.718 228.925C588.519 233.037 587.395 237.556 587.347 242.482V257.759C587.347 264.167 588.519 269.666 590.862 274.257C593.205 278.799 596.481 282.29 600.689 284.729C604.898 287.12 609.823 288.315 615.466 288.315C619.244 288.315 622.664 287.789 625.724 286.737C628.785 285.637 631.439 284.035 633.686 281.931C635.934 279.827 637.632 277.221 638.78 274.113L663.025 276.839C661.495 283.246 658.578 288.841 654.274 293.623C650.018 298.357 644.566 302.039 637.919 304.669C631.271 307.251 623.668 308.542 615.108 308.542Z" fill="black"/>
<path d="M597.87 81.8569C597.87 113.246 572.424 138.692 541.034 138.692C509.645 138.692 484.199 113.246 484.199 81.8569C484.199 50.4676 509.645 25.0215 541.034 25.0215C572.424 25.0215 597.87 50.4676 597.87 81.8569Z" fill="black"/>
<mask id="mask0_861_44810" style="mask-type:alpha" maskUnits="userSpaceOnUse" x="683" y="196" width="111" height="111">
<path d="M683.302 196.191H793.602V306.492H683.302V196.191Z" fill="#C4C4C4"/>
</mask>
<g mask="url(#mask0_861_44810)">
<path d="M793.602 306.492C793.602 367.409 744.219 416.792 683.302 416.792C622.384 416.792 573.001 367.409 573.001 306.492C573.001 245.575 622.384 196.191 683.302 196.191C744.219 196.191 793.602 245.575 793.602 306.492Z" fill="black"/>
</g>
</svg>
