<svg xmlns="http://www.w3.org/2000/svg" viewBox="0 0 260.42 68.54"><defs><style>.cls-1{fill:#231f20;}.cls-2{fill:#f9d94a;}.cls-3{fill:#fbb040;}.cls-4{fill:#010101;}</style></defs><title>logo-thai-programmer</title><g id="Layer_2" data-name="Layer 2"><g id="Layer_1-2" data-name="Layer 1"><path class="cls-1" d="M34.61,53.86V52.15a1.07,1.07,0,0,0-1.11-1H14.19a1.07,1.07,0,0,0-1.11,1v1.71a1,1,0,0,0,.83,1,1,1,0,0,0-.83,1v1.71a1,1,0,0,0,.83,1,1,1,0,0,0-.83,1v1.71a1.07,1.07,0,0,0,1.11,1h19.3a1.07,1.07,0,0,0,1.11-1V59.56a1,1,0,0,0-.83-1,1,1,0,0,0,.83-1V55.86a1,1,0,0,0-.83-1A1,1,0,0,0,34.61,53.86Zm-9.2,5.21a.57.57,0,0,1-.56.57H15.11a.57.57,0,0,1-.56-.57v-1a.57.57,0,0,1,.56-.57h9.74a.57.57,0,0,1,.56.57Zm6.26-3.82c0,.32-.4.57-.89.57H15.43c-.49,0-.89-.26-.89-.57v-1c0-.32.4-.57.89-.57H30.78c.49,0,.89.26.89.57Z"/><path class="cls-1" d="M23.84,68.54c5,0,9.1-2.57,9.1-5.73H14.75C14.75,66,18.82,68.54,23.84,68.54Z"/><g id="Bright_Left" data-name="Bright Left"><path class="cls-2" d="M21.71,50.64H14.66a1.22,1.22,0,0,1-1.18-.88,14.45,14.45,0,0,1-.33-4.81c.09-2,.17-3.66-.86-5.12-2.11-3-6-10.15-6.36-10.88-.38-.38-2-1.51-3.06-2.26C2,26,1.12,25.44.49,25A1.24,1.24,0,0,1,0,24a1.65,1.65,0,0,1,.63-1.25l.71-.66c.49-.45,1.1-1,1.6-1.54a4,4,0,0,0,.82-1.07,23.39,23.39,0,0,1,3.35-11,17.87,17.87,0,0,1,6.11-5.88A19.52,19.52,0,0,1,21.67,0a1.22,1.22,0,0,1,.08,2.45,17.36,17.36,0,0,0-7.39,2.36C9.44,7.73,6.69,12.74,6.19,19.7c-.09,1.24-1.4,2.55-3.11,4.12l1.2.85c2.94,2.06,3.56,2.56,3.81,3.11s4.2,7.77,6.21,10.64c1.5,2.15,1.39,4.53,1.3,6.64a16.57,16.57,0,0,0,0,3.14h6.07a1.22,1.22,0,0,1,0,2.45Z"/></g><g id="Bright_Right" data-name="Bright Right"><path class="cls-2" d="M33.11,50.64H26.05a1.22,1.22,0,0,1,0-2.45h6.07a16.55,16.55,0,0,0,0-3.14c-.1-2.11-.21-4.49,1.3-6.64,2-2.86,5.84-10,6.21-10.64s.87-1,3.81-3.11l1.2-.85c-1.71-1.57-3-2.88-3.11-4.12-.51-7-3.28-12-8.25-14.94A17.16,17.16,0,0,0,26,2.45,1.22,1.22,0,1,1,26.09,0a19.52,19.52,0,0,1,8.47,2.64,17.87,17.87,0,0,1,6.11,5.88,23.39,23.39,0,0,1,3.35,11,4,4,0,0,0,.82,1.07c.5.54,1.11,1.09,1.6,1.54l.71.66A1.65,1.65,0,0,1,47.76,24a1.24,1.24,0,0,1-.49.94c-.63.48-1.48,1.08-2.39,1.72-1.07.76-2.68,1.88-3.06,2.26-.39.73-4.25,7.87-6.36,10.88-1,1.46-.95,3.16-.86,5.12a14.45,14.45,0,0,1-.33,4.81A1.22,1.22,0,0,1,33.11,50.64Z"/></g><path class="cls-1" d="M31.47,15.46h-.61V12.34H23.63a.31.31,0,0,1-.3-.23L23.06,11l-1.18,3.35a.31.31,0,0,1-.59,0L20.16,9.81l-.7,2.31a.31.31,0,0,1-.29.22H16.26V14.4h-.61V12a.31.31,0,0,1,.31-.31h3l1-3.15a.31.31,0,0,1,.59,0l1.16,4.58L22.83,9.8a.31.31,0,0,1,.59,0l.46,1.89h7.29a.31.31,0,0,1,.31.31Z"/><g id="Input_Leg" data-name="Input Leg"><path class="cls-1" d="M19.61,48.18H19V37.64H16a.31.31,0,0,1-.31-.31V30.6h.61V37h3a.31.31,0,0,1,.31.31Z"/></g><g id="Input"><rect class="cls-3" x="14.13" y="13.79" width="3.63" height="17.03"/></g><g id="Output_Leg" data-name="Output Leg"><path class="cls-1" d="M27.36,48.18h-.61V37.33a.31.31,0,0,1,.31-.31h4.05V27.85h.61v9.49a.31.31,0,0,1-.31.31H27.36Z"/></g><g id="Output"><path class="cls-1" d="M28.47,13.86a8.44,8.44,0,1,0,8.28,8.44A8.36,8.36,0,0,0,28.47,13.86Zm0,14A5.55,5.55,0,1,1,33.9,22.3,5.49,5.49,0,0,1,28.47,27.85Z"/></g><path class="cls-1" d="M120.4,12.9h5.18a15.32,15.32,0,0,1,1.54.07,5.89,5.89,0,0,1,1.29.27,3.68,3.68,0,0,1,1,.53,3.15,3.15,0,0,1,.79.87,4.47,4.47,0,0,1,.65,2.41,5,5,0,0,1-.34,1.92,3.55,3.55,0,0,1-1,1.39,4.52,4.52,0,0,1-1.65.85,8.08,8.08,0,0,1-2.26.29h-2.92v5.35H120.4Zm2.28,6.61h2.92a5.19,5.19,0,0,0,1.37-.15,2.29,2.29,0,0,0,.91-.46,1.73,1.73,0,0,0,.5-.75,3,3,0,0,0,.16-1,2.7,2.7,0,0,0-.19-1.09,1.65,1.65,0,0,0-.56-.7,2.45,2.45,0,0,0-.92-.38,6.37,6.37,0,0,0-1.27-.11h-2.9Z"/><path class="cls-1" d="M144.75,26.84h-2.47L141,23.28a3.56,3.56,0,0,0-1-1.59,2.6,2.6,0,0,0-1.72-.53h-2.88v5.69h-2.28V12.9h6.07a9.6,9.6,0,0,1,2,.2,4.3,4.3,0,0,1,1.58.65,3.09,3.09,0,0,1,1,1.21,4.27,4.27,0,0,1,.37,1.88,3.59,3.59,0,0,1-.78,2.4,3.71,3.71,0,0,1-2.21,1.2,3,3,0,0,1,1.27,1,6.22,6.22,0,0,1,.9,1.72Zm-9.32-7.66H139a6,6,0,0,0,1.3-.12,2.28,2.28,0,0,0,.89-.39,1.58,1.58,0,0,0,.51-.69,2.84,2.84,0,0,0,.17-1,2,2,0,0,0-.64-1.63,3,3,0,0,0-2-.54h-3.79Z"/><path class="cls-1" d="M152.88,12.67a6.63,6.63,0,0,1,2.66.52,6,6,0,0,1,2.07,1.46,6.65,6.65,0,0,1,1.34,2.27,8.66,8.66,0,0,1,.48,2.95,8.88,8.88,0,0,1-.46,2.94,6.62,6.62,0,0,1-1.32,2.28,5.85,5.85,0,0,1-2.07,1.47,7.25,7.25,0,0,1-5.38,0,5.84,5.84,0,0,1-2.06-1.46,6.62,6.62,0,0,1-1.33-2.28,8.85,8.85,0,0,1-.47-3,8.64,8.64,0,0,1,.48-2.95,6.61,6.61,0,0,1,1.35-2.27,6,6,0,0,1,2.07-1.46A6.6,6.6,0,0,1,152.88,12.67Zm0,12.44a4,4,0,0,0,1.74-.37,3.76,3.76,0,0,0,1.34-1.06,5,5,0,0,0,.86-1.66,7.84,7.84,0,0,0,0-4.29,5.11,5.11,0,0,0-.84-1.66A3.78,3.78,0,0,0,154.63,15a3.89,3.89,0,0,0-1.73-.38,4,4,0,0,0-1.74.38,3.85,3.85,0,0,0-1.35,1.06,4.91,4.91,0,0,0-.86,1.66,7.19,7.19,0,0,0-.3,2.15A7.11,7.11,0,0,0,149,22a5,5,0,0,0,.86,1.66,3.76,3.76,0,0,0,1.33,1.06A3.92,3.92,0,0,0,152.86,25.11Z"/><path class="cls-1" d="M167.69,27.08a6.83,6.83,0,0,1-2.68-.5,5.71,5.71,0,0,1-2-1.44,6.47,6.47,0,0,1-1.31-2.27,9.18,9.18,0,0,1-.46-3,9,9,0,0,1,.46-2.95A6.49,6.49,0,0,1,163,14.65,5.85,5.85,0,0,1,165,13.19a6.8,6.8,0,0,1,2.71-.52,8.46,8.46,0,0,1,2.34.3,5.52,5.52,0,0,1,1.82.89,4.42,4.42,0,0,1,1.23,1.44,5.17,5.17,0,0,1,.57,2h-2.29a2.76,2.76,0,0,0-1.11-1.94,4.2,4.2,0,0,0-2.54-.69A4.15,4.15,0,0,0,166,15a3.75,3.75,0,0,0-1.34,1,4.73,4.73,0,0,0-.87,1.64,7.4,7.4,0,0,0-.31,2.22,7.32,7.32,0,0,0,.31,2.23,4.75,4.75,0,0,0,.88,1.65,3.72,3.72,0,0,0,1.36,1,4.34,4.34,0,0,0,1.76.35,5.9,5.9,0,0,0,2.3-.41,3.79,3.79,0,0,0,1.61-1.28V21.51h-3.33V19.64h5.53v7.2h-1.51L172,25.51a4.62,4.62,0,0,1-1.8,1.17A7.35,7.35,0,0,1,167.69,27.08Z"/><path class="cls-1" d="M188.23,26.84h-2.47l-1.24-3.56a3.57,3.57,0,0,0-1-1.59,2.6,2.6,0,0,0-1.72-.53H178.9v5.69h-2.28V12.9h6.07a9.6,9.6,0,0,1,2,.2,4.31,4.31,0,0,1,1.58.65,3.09,3.09,0,0,1,1,1.21,4.26,4.26,0,0,1,.37,1.88,3.59,3.59,0,0,1-.78,2.4,3.71,3.71,0,0,1-2.21,1.2,3,3,0,0,1,1.27,1,6.24,6.24,0,0,1,.9,1.72Zm-9.32-7.66h3.55a6,6,0,0,0,1.3-.12,2.28,2.28,0,0,0,.89-.39,1.58,1.58,0,0,0,.51-.69,2.86,2.86,0,0,0,.17-1,2,2,0,0,0-.64-1.63,3,3,0,0,0-2-.54H178.9Z"/><path class="cls-1" d="M201.73,26.84h-2.38L198,23h-5.39l-1.32,3.86h-2.31l5-13.94h2.5Zm-8.55-5.71h4.17l-2-5.77h-.19Z"/><path class="cls-1" d="M216.72,26.84H214.6V20.06q0-1.19,0-2.37t0-2.35L211,26.84h-2l-3.68-11.5q0,1.17,0,2.35t0,2.37v6.78h-2.15V12.9h3.31L210,24,213.4,12.9h3.33Z"/><path class="cls-1" d="M233.17,26.84H231V20.06q0-1.19,0-2.37t0-2.35l-3.61,11.5h-2l-3.68-11.5q0,1.17,0,2.35t0,2.37v6.78h-2.15V12.9h3.31L226.44,24l3.41-11.05h3.33Z"/><path class="cls-1" d="M246.44,26.84H236.1V12.9h10v2h-7.74v3.76h7.25v2h-7.25v4.14h8.06Z"/><path class="cls-1" d="M260.42,26.84h-2.47l-1.24-3.56a3.57,3.57,0,0,0-1-1.59,2.6,2.6,0,0,0-1.72-.53h-2.88v5.69h-2.28V12.9h6.07a9.6,9.6,0,0,1,2,.2,4.29,4.29,0,0,1,1.58.65,3.09,3.09,0,0,1,1,1.21,4.27,4.27,0,0,1,.37,1.88,3.59,3.59,0,0,1-.78,2.4,3.71,3.71,0,0,1-2.21,1.2,3,3,0,0,1,1.26,1,6.22,6.22,0,0,1,.9,1.72Zm-9.32-7.66h3.55a6,6,0,0,0,1.3-.12,2.28,2.28,0,0,0,.89-.39,1.58,1.58,0,0,0,.51-.69,2.86,2.86,0,0,0,.17-1,2,2,0,0,0-.64-1.63,3,3,0,0,0-2-.54h-3.79Z"/><rect class="cls-4" x="58.46" y="10.25" width="2.15" height="48.05"/><path class="cls-1" d="M80.08,15H75.77V26.87H73.5V15H69.2v-2H80.08Z"/><path class="cls-1" d="M92.9,26.87H90.63V20.52H84.21v6.35H81.93V12.93h2.28v5.58h6.42V12.93H92.9Z"/><path class="cls-1" d="M107.16,26.87h-2.38L103.38,23H98l-1.32,3.86H94.36l5-13.94h2.5Zm-8.55-5.71h4.17l-2-5.77h-.19Z"/><path class="cls-1" d="M111.08,26.87h-2.27V12.93h2.27Z"/><path class="cls-1" d="M81.43,54.14H80.3v-5.8a16.2,16.2,0,0,0-3-.33c-2,0-3.53.73-3.53,2.92a2.22,2.22,0,0,0,2.37,2.32A4.37,4.37,0,0,0,78,52.83v1.06a4.36,4.36,0,0,1-1.94.43A3.24,3.24,0,0,1,72.66,51c0-3,2.22-4,4.64-4a15,15,0,0,1,3,.35v-2c0-2.17-1.34-2.87-3.07-2.87a11.29,11.29,0,0,0-3.81.83l-.18-1.06a10.69,10.69,0,0,1,4-.83,4.63,4.63,0,0,1,3.07,1,3.49,3.49,0,0,0,.15-.48l.25-1.06h1.13L81.56,42a1.77,1.77,0,0,1-.6,1.16,4.39,4.39,0,0,1,.48,2.12Z"/><path class="cls-1" d="M85.31,54.14h-1V41.54h1.13v9.12c1.44,1.56,2.92,2.6,4.51,2.6,1.34,0,1.89-.76,1.89-2.27V41.54H93V51c0,2.34-1.31,3.28-2.95,3.28a6.32,6.32,0,0,1-4.59-2.52Z"/><path class="cls-1" d="M100.91,54.14H99.78v-9a2.46,2.46,0,0,0-2.72-2.75,6.81,6.81,0,0,0-2.14.4v-1a6.24,6.24,0,0,1,2.24-.45,3.43,3.43,0,0,1,3.75,3.75Z"/><path class="cls-1" d="M104.47,49.5a4.24,4.24,0,0,1-1.26-3.12v-.83c0-2.87,2.29-4.18,4.59-4.18s4.59,1.31,4.59,4.18v8.59h-1.13V45.54c0-2.17-1.74-3.12-3.45-3.12s-3.45,1-3.45,3.12v.76a3.15,3.15,0,0,0,.6,2.14,2.32,2.32,0,0,1,2-.81h1.56v1.06h-1.39c-1,0-1.39.28-1.61,1.31l-.91,4.13h-1.16Z"/><path class="cls-1" d="M116.26,54.14h-1V41.54h1.13v9.12c1.44,1.56,2.92,2.6,4.51,2.6,1.34,0,1.89-.76,1.89-2.27V41.54H124V51c0,2.34-1.31,3.28-2.95,3.28a6.32,6.32,0,0,1-4.59-2.52Z"/><path class="cls-1" d="M128.78,52.22c0,.6.2.86.88.86h.6v1.06h-.6c-1.39,0-2-.73-2-1.84V42.8c0-2.32-1.51-4-1.51-6v-.73c0-2.44,1.56-3.35,3.68-3.35h2.67v1.06h-2.67c-1.54,0-2.55.66-2.55,2.34v.68c0,1.84,1.51,3.5,1.51,6Z"/><path class="cls-1" d="M132.46,41.54h1.13v9.22c0,1.81,1.49,2.5,3.15,2.5a6.5,6.5,0,0,0,3.43-1V36.24h1.13V52.93a8.09,8.09,0,0,1-4.56,1.39c-2.19,0-4.28-1-4.28-3.53Z"/><path class="cls-1" d="M150.91,42.87a12.94,12.94,0,0,0-3.18-.45c-1.56,0-3,.45-3,1.94,0,3,7,2.17,7,6.33,0,2.7-1.79,3.63-4.08,3.63a14.56,14.56,0,0,1-3.65-.58l.15-1.08a12.82,12.82,0,0,0,3.55.6c1.61,0,2.9-.58,2.9-2.57,0-3.2-7-2.32-7-6.33,0-2.27,2-3,4.11-3a12.31,12.31,0,0,1,3.38.53Z"/><path class="cls-1" d="M155.09,52.22c0,.6.2.86.88.86h.6v1.06H156c-1.39,0-2-.73-2-1.84V41.54h1.13Zm4.11,0c0,.6.2.86.88.86h.6v1.06h-.6c-1.39,0-2-.73-2-1.84V41.54h1.13Z"/><path class="cls-1" d="M171.32,54.14h-1.13V45.57c0-2.39-1.31-3.15-3.2-3.15a9.68,9.68,0,0,0-3.63.83l.4,2.34v8.54h-1.13V45.59l-.5-2.9A11.73,11.73,0,0,1,167,41.36c2.49,0,4.33,1.06,4.33,4.21Z"/><path class="cls-1" d="M180.92,42.87a13,13,0,0,0-3.18-.45c-1.56,0-3,.45-3,1.94,0,3,7,2.17,7,6.33,0,2.7-1.79,3.63-4.08,3.63a14.56,14.56,0,0,1-3.65-.58l.15-1.08a12.82,12.82,0,0,0,3.55.6c1.61,0,2.9-.58,2.9-2.57,0-3.2-7-2.32-7-6.33,0-2.27,2-3,4.11-3a12.31,12.31,0,0,1,3.38.53Z"/><path class="cls-1" d="M184.93,54.14h-1V41.54h1.13v9.12c1.44,1.56,2.92,2.6,4.51,2.6,1.34,0,1.89-.76,1.89-2.27V41.54h1.13V51c0,2.34-1.31,3.28-2.95,3.28a6.32,6.32,0,0,1-4.59-2.52Z"/><path class="cls-1" d="M196.69,52.22c0,.6.2.86.88.86h.61v1.06h-.61c-1.39,0-2-.73-2-1.84V41.54h1.13Z"/><path class="cls-1" d="M201.08,54.14h-1V41.54h1.13v9.12c1.44,1.56,2.92,2.6,4.51,2.6,1.34,0,1.89-.76,1.89-2.27V41.54h1.13V51c0,2.34-1.31,3.28-2.95,3.28a6.32,6.32,0,0,1-4.59-2.52Z"/><path class="cls-1" d="M211.26,49.78a2.37,2.37,0,0,1,2.67-2.67h1.86v1.06H214c-1.16,0-1.59.58-1.59,1.64v2.55a7,7,0,0,0,3.43.91c1.66,0,3.2-.6,3.2-2.5V45.42c0-2.27-1.44-3-3.15-3a10.49,10.49,0,0,0-4,1l-.2-1a10.23,10.23,0,0,1,4.16-1.06c2.27,0,4.28,1.06,4.28,4v5.42c0,2.57-2.07,3.53-4.33,3.53A8.38,8.38,0,0,1,211.26,53Z"/><path class="cls-1" d="M229.75,42.87a12.94,12.94,0,0,0-3.18-.45c-1.56,0-3,.45-3,1.94,0,3,7,2.17,7,6.33,0,2.7-1.79,3.63-4.08,3.63a14.57,14.57,0,0,1-3.65-.58l.15-1.08a12.81,12.81,0,0,0,3.55.6c1.61,0,2.9-.58,2.9-2.57,0-3.2-7-2.32-7-6.33,0-2.27,2-3,4.11-3a12.31,12.31,0,0,1,3.38.53Z"/><path class="cls-1" d="M226.3,39.39h-.93a5.38,5.38,0,0,1-.18-1.31c0-1.21.5-1.71,1.74-1.71h4.41l-.18,1.06H227c-.53,0-.71.2-.71.71Z"/><path class="cls-1" d="M233.81,42c0-3.23,2-4.54,2-6.5v-.66c0-.73-.25-1.06-1-1.06h-4V32.72h4a1.9,1.9,0,0,1,2.17,2.07v.71c0,2.22-2,3.63-2,6.53V52.22c0,.6.2.86.88.86h.6v1.06h-.6c-1.39,0-2-.73-2-1.84Z"/><path class="cls-1" d="M239.76,45.06c.86-1.76,2.42-3.7,4.56-3.7a2.78,2.78,0,0,1,3,3.12v9.65h-1.13V44.48c0-1.56-.86-2.07-1.89-2.07-1.76,0-3.48,2-4.51,4.21v7.51h-1.13V41.54h1.13Z"/><path class="cls-1" d="M258.91,50.81c0,2.65-2,3.5-4.36,3.5a11.67,11.67,0,0,1-4.54-1v-3c0-1.34.13-2.37,1.59-3A2.7,2.7,0,0,1,250,44.76v-.58a2.36,2.36,0,0,1,2.52-2.65h1.89V42.6h-1.76c-1.08,0-1.51.48-1.51,1.51v.71a1.81,1.81,0,0,0,2.07,2h1.59v1.06h-1.59c-1.59,0-2.07.78-2.07,2.32V52.6a9.82,9.82,0,0,0,3.4.66c1.69,0,3.23-.6,3.23-2.57V41.54h1.13Z"/></g></g></svg>